<svg xmlns="http://www.w3.org/2000/svg" xmlns:xlink="http://www.w3.org/1999/xlink" width="450" zoomAndPan="magnify" viewBox="0 0 337.5 337.500003" height="450" preserveAspectRatio="xMidYMid meet" version="1.0"><defs><clipPath id="ab1f533d09"><path d="M 0 0 L 336.800781 0 L 336.800781 336.800781 L 0 336.800781 Z M 0 0 " clip-rule="nonzero"/></clipPath><clipPath id="82129d2ee3"><path d="M 168.402344 0 C 75.394531 0 0 75.394531 0 168.402344 C 0 261.40625 75.394531 336.800781 168.402344 336.800781 C 261.40625 336.800781 336.800781 261.40625 336.800781 168.402344 C 336.800781 75.394531 261.40625 0 168.402344 0 Z M 168.402344 0 " clip-rule="nonzero"/></clipPath><clipPath id="f279eceff3"><path d="M 78.898438 49.394531 L 257.882812 49.394531 L 257.882812 266.574219 L 78.898438 266.574219 Z M 78.898438 49.394531 " clip-rule="nonzero"/></clipPath></defs><g clip-path="url(#ab1f533d09)"><g clip-path="url(#82129d2ee3)"><path stroke-linecap="butt" transform="matrix(0.748891, 0, 0, 0.748891, 0, 0.0000114852)" fill="none" stroke-linejoin="miter" d="M 224.869114 -0.0000153363 C 100.674973 -0.0000153363 0 100.674958 0 224.869099 C 0 349.058024 100.674973 449.732997 224.869114 449.732997 C 349.058039 449.732997 449.733013 349.058024 449.733013 224.869099 C 449.733013 100.674958 349.058039 -0.0000153363 224.869114 -0.0000153363 Z M 224.869114 -0.0000153363 " stroke="#17a34a" stroke-width="20" stroke-opacity="1" stroke-miterlimit="4"/></g></g><path fill="#4c9045" d="M 121.660156 154.910156 C 121.660156 155.617188 121.085938 156.195312 120.378906 156.195312 L 109.199219 156.195312 C 108.492188 156.195312 107.914062 155.617188 107.914062 154.910156 L 107.914062 143.738281 C 107.914062 143.027344 108.492188 142.449219 109.199219 142.449219 L 120.378906 142.449219 C 121.085938 142.449219 121.660156 143.027344 121.660156 143.738281 Z M 120.378906 137.753906 L 109.199219 137.753906 C 105.902344 137.753906 103.21875 140.4375 103.21875 143.738281 L 103.21875 154.910156 C 103.21875 158.207031 105.902344 160.890625 109.199219 160.890625 L 120.378906 160.890625 C 123.675781 160.890625 126.355469 158.207031 126.355469 154.910156 L 126.355469 143.738281 C 126.355469 140.4375 123.675781 137.753906 120.378906 137.753906 " fill-opacity="1" fill-rule="nonzero"/><path fill="#4c9045" d="M 137.480469 146.976562 C 136.1875 146.976562 135.136719 148.027344 135.136719 149.320312 C 135.136719 150.617188 136.1875 151.667969 137.480469 151.667969 L 215.140625 151.667969 C 216.441406 151.667969 217.488281 150.617188 217.488281 149.320312 C 217.488281 148.027344 216.441406 146.976562 215.140625 146.976562 L 137.480469 146.976562 " fill-opacity="1" fill-rule="nonzero"/><path fill="#4c9045" d="M 121.660156 190.371094 C 121.660156 191.078125 121.085938 191.660156 120.378906 191.660156 L 109.199219 191.660156 C 108.492188 191.660156 107.914062 191.078125 107.914062 190.371094 L 107.914062 179.199219 C 107.914062 178.488281 108.492188 177.910156 109.199219 177.910156 L 120.378906 177.910156 C 121.085938 177.910156 121.660156 178.488281 121.660156 179.199219 Z M 120.378906 173.214844 L 109.199219 173.214844 C 105.902344 173.214844 103.21875 175.898438 103.21875 179.199219 L 103.21875 190.371094 C 103.21875 193.667969 105.902344 196.351562 109.199219 196.351562 L 120.378906 196.351562 C 123.675781 196.351562 126.355469 193.667969 126.355469 190.371094 L 126.355469 179.199219 C 126.355469 175.898438 123.675781 173.214844 120.378906 173.214844 " fill-opacity="1" fill-rule="nonzero"/><path fill="#4c9045" d="M 215.140625 182.4375 L 137.480469 182.4375 C 136.1875 182.4375 135.136719 183.488281 135.136719 184.78125 C 135.136719 186.078125 136.1875 187.128906 137.480469 187.128906 L 215.140625 187.128906 C 216.441406 187.128906 217.488281 186.078125 217.488281 184.78125 C 217.488281 183.488281 216.441406 182.4375 215.140625 182.4375 " fill-opacity="1" fill-rule="nonzero"/><path fill="#4c9045" d="M 121.660156 225.832031 C 121.660156 226.542969 121.085938 227.121094 120.378906 227.121094 L 109.199219 227.121094 C 108.492188 227.121094 107.914062 226.542969 107.914062 225.832031 L 107.914062 214.660156 C 107.914062 213.949219 108.492188 213.371094 109.199219 213.371094 L 120.378906 213.371094 C 121.085938 213.371094 121.660156 213.949219 121.660156 214.660156 Z M 120.378906 208.675781 L 109.199219 208.675781 C 105.902344 208.675781 103.21875 211.359375 103.21875 214.660156 L 103.21875 225.832031 C 103.21875 229.132812 105.902344 231.816406 109.199219 231.816406 L 120.378906 231.816406 C 123.675781 231.816406 126.355469 229.132812 126.355469 225.832031 L 126.355469 214.660156 C 126.355469 211.359375 123.675781 208.675781 120.378906 208.675781 " fill-opacity="1" fill-rule="nonzero"/><path fill="#4c9045" d="M 215.140625 217.898438 L 137.480469 217.898438 C 136.1875 217.898438 135.136719 218.949219 135.136719 220.246094 C 135.136719 221.542969 136.1875 222.59375 137.480469 222.59375 L 215.140625 222.59375 C 216.441406 222.59375 217.488281 221.542969 217.488281 220.246094 C 217.488281 218.949219 216.441406 217.898438 215.140625 217.898438 " fill-opacity="1" fill-rule="nonzero"/><g clip-path="url(#f279eceff3)"><path fill="#4c9045" d="M 220.1875 117.699219 C 218.847656 119.691406 216.722656 121.019531 214.347656 121.351562 C 213.960938 121.40625 213.574219 121.429688 213.1875 121.429688 C 211.199219 121.429688 209.265625 120.730469 207.730469 119.429688 L 185.796875 100.804688 C 182.246094 97.789062 181.816406 92.472656 184.824219 88.921875 C 187.839844 85.378906 193.15625 84.9375 196.707031 87.953125 L 211.445312 100.46875 L 231.175781 71.058594 C 233.765625 67.195312 239.003906 66.160156 242.871094 68.753906 C 246.734375 71.347656 247.765625 76.585938 245.175781 80.449219 Z M 232.417969 241.859375 C 232.417969 250.289062 225.558594 257.144531 217.132812 257.144531 L 103.582031 257.144531 C 95.15625 257.144531 88.296875 250.289062 88.296875 241.859375 L 88.296875 129.128906 L 90.242188 127.183594 L 112.429688 127.183594 C 123.46875 127.183594 132.414062 118.238281 132.414062 107.199219 L 132.414062 85.011719 L 134.359375 83.066406 L 173.386719 83.066406 C 172.742188 86.015625 172.382812 89.074219 172.382812 92.214844 C 172.382812 115.835938 191.527344 134.980469 215.140625 134.980469 C 221.296875 134.980469 227.128906 133.65625 232.417969 131.316406 Z M 257.90625 92.214844 C 257.90625 68.601562 238.765625 49.457031 215.140625 49.457031 C 198.179688 49.457031 183.566406 59.359375 176.65625 73.675781 L 132.414062 73.675781 C 131.167969 73.675781 129.972656 74.171875 129.09375 75.050781 L 80.28125 123.863281 C 79.398438 124.742188 78.902344 125.9375 78.902344 127.183594 L 78.902344 241.859375 C 78.902344 255.464844 89.976562 266.535156 103.582031 266.535156 L 217.132812 266.535156 C 230.738281 266.535156 241.804688 255.464844 241.804688 241.859375 L 241.804688 125.617188 C 251.609375 117.78125 257.90625 105.746094 257.90625 92.214844 " fill-opacity="1" fill-rule="nonzero"/></g></svg>