<svg xmlns="http://www.w3.org/2000/svg" xmlns:xlink="http://www.w3.org/1999/xlink" width="450" zoomAndPan="magnify" viewBox="0 0 337.5 337.500003" height="450" preserveAspectRatio="xMidYMid meet" version="1.0"><defs><clipPath id="e6120b1d5a"><path d="M 64.578125 62 L 272.019531 62 L 272.019531 275 L 64.578125 275 Z M 64.578125 62 " clip-rule="nonzero"/></clipPath><clipPath id="cf8a79d69e"><path d="M 0 0 L 336.800781 0 L 336.800781 336.800781 L 0 336.800781 Z M 0 0 " clip-rule="nonzero"/></clipPath><clipPath id="6c8cd69337"><path d="M 168.402344 0 C 75.394531 0 0 75.394531 0 168.402344 C 0 261.40625 75.394531 336.800781 168.402344 336.800781 C 261.40625 336.800781 336.800781 261.40625 336.800781 168.402344 C 336.800781 75.394531 261.40625 0 168.402344 0 Z M 168.402344 0 " clip-rule="nonzero"/></clipPath></defs><g clip-path="url(#e6120b1d5a)"><path fill="#17a34a" d="M 264.023438 176.269531 L 260.386719 176.269531 L 260.386719 149.6875 C 260.386719 149.148438 260.335938 148.613281 260.230469 148.085938 C 260.125 147.558594 259.96875 147.046875 259.765625 146.550781 C 259.558594 146.050781 259.304688 145.578125 259.007812 145.132812 C 258.707031 144.683594 258.367188 144.269531 257.988281 143.890625 C 257.605469 143.507812 257.191406 143.167969 256.746094 142.871094 C 256.296875 142.570312 255.824219 142.320312 255.328125 142.113281 C 254.832031 141.90625 254.320312 141.75 253.792969 141.648438 C 253.261719 141.542969 252.730469 141.488281 252.191406 141.488281 L 244.898438 141.488281 L 244.898438 109.796875 C 244.910156 108.863281 244.589844 108.0625 243.941406 107.390625 L 201.019531 63.679688 C 200.339844 62.90625 199.480469 62.515625 198.453125 62.503906 L 93.210938 62.503906 C 92.757812 62.503906 92.320312 62.589844 91.902344 62.761719 C 91.484375 62.9375 91.113281 63.183594 90.792969 63.503906 C 90.476562 63.824219 90.226562 64.195312 90.054688 64.613281 C 89.882812 65.03125 89.792969 65.464844 89.792969 65.917969 L 89.792969 141.542969 L 82.390625 141.542969 C 81.851562 141.542969 81.320312 141.597656 80.792969 141.703125 C 80.265625 141.804688 79.75 141.960938 79.253906 142.167969 C 78.757812 142.375 78.285156 142.625 77.835938 142.925781 C 77.390625 143.222656 76.976562 143.5625 76.59375 143.945312 C 76.214844 144.324219 75.875 144.738281 75.574219 145.1875 C 75.277344 145.632812 75.023438 146.105469 74.816406 146.605469 C 74.613281 147.101562 74.457031 147.613281 74.351562 148.140625 C 74.246094 148.667969 74.195312 149.203125 74.195312 149.742188 L 74.195312 187.335938 L 72.882812 187.335938 C 72.34375 187.335938 71.8125 187.386719 71.285156 187.492188 C 70.757812 187.597656 70.242188 187.753906 69.746094 187.957031 C 69.25 188.164062 68.777344 188.417969 68.328125 188.714844 C 67.882812 189.015625 67.46875 189.355469 67.085938 189.734375 C 66.707031 190.117188 66.367188 190.53125 66.066406 190.976562 C 65.769531 191.425781 65.515625 191.898438 65.308594 192.394531 C 65.105469 192.890625 64.949219 193.402344 64.84375 193.933594 C 64.738281 194.460938 64.6875 194.992188 64.6875 195.53125 C 64.6875 195.53125 64.6875 195.832031 64.6875 195.996094 L 74.140625 266.265625 C 74.160156 266.789062 74.226562 267.308594 74.347656 267.820312 C 74.464844 268.332031 74.632812 268.828125 74.847656 269.308594 C 75.0625 269.789062 75.320312 270.246094 75.621094 270.675781 C 75.925781 271.105469 76.265625 271.503906 76.644531 271.867188 C 77.023438 272.234375 77.433594 272.558594 77.875 272.84375 C 78.316406 273.128906 78.78125 273.371094 79.265625 273.566406 C 79.753906 273.765625 80.257812 273.914062 80.773438 274.011719 C 81.289062 274.113281 81.808594 274.160156 82.335938 274.160156 L 252.246094 274.160156 C 252.773438 274.160156 253.292969 274.113281 253.804688 274.011719 C 254.320312 273.914062 254.824219 273.765625 255.308594 273.570312 C 255.796875 273.375 256.261719 273.132812 256.699219 272.851562 C 257.140625 272.566406 257.550781 272.242188 257.929688 271.878906 C 258.308594 271.515625 258.648438 271.117188 258.949219 270.691406 C 259.253906 270.261719 259.511719 269.808594 259.726562 269.328125 C 259.941406 268.851562 260.109375 268.355469 260.230469 267.84375 C 260.351562 267.335938 260.421875 266.816406 260.441406 266.292969 L 272.21875 184.902344 C 272.230469 184.738281 272.230469 184.574219 272.21875 184.410156 C 272.214844 183.875 272.160156 183.34375 272.050781 182.820312 C 271.945312 182.292969 271.785156 181.785156 271.578125 181.292969 C 271.371094 180.796875 271.117188 180.328125 270.820312 179.882812 C 270.519531 179.4375 270.179688 179.027344 269.796875 178.652344 C 269.417969 178.273438 269.003906 177.9375 268.558594 177.640625 C 268.113281 177.34375 267.640625 177.09375 267.144531 176.886719 C 266.652344 176.683594 266.140625 176.53125 265.613281 176.425781 C 265.089844 176.320312 264.558594 176.269531 264.023438 176.269531 Z M 80.96875 187.335938 L 80.96875 149.6875 C 80.972656 149.511719 81.007812 149.347656 81.078125 149.1875 C 81.144531 149.027344 81.238281 148.886719 81.363281 148.765625 C 81.484375 148.644531 81.625 148.550781 81.785156 148.480469 C 81.941406 148.414062 82.109375 148.378906 82.28125 148.375 L 89.683594 148.375 L 89.683594 187.335938 Z M 181.019531 177.882812 L 175.199219 187.335938 L 96.625 187.335938 L 96.625 69.332031 L 195.117188 69.332031 L 195.117188 109.796875 C 195.132812 110.234375 195.226562 110.652344 195.398438 111.050781 C 195.574219 111.453125 195.816406 111.804688 196.125 112.113281 C 196.4375 112.421875 196.792969 112.660156 197.195312 112.832031 C 197.597656 113 198.015625 113.09375 198.453125 113.101562 L 238.011719 113.101562 L 238.011719 176.269531 L 184.054688 176.269531 C 183.457031 176.265625 182.902344 176.40625 182.382812 176.695312 C 181.859375 176.980469 181.445312 177.375 181.128906 177.882812 Z M 244.898438 176.269531 L 244.898438 148.375 L 252.300781 148.375 C 252.472656 148.378906 252.640625 148.414062 252.800781 148.480469 C 252.957031 148.550781 253.097656 148.644531 253.222656 148.765625 C 253.34375 148.886719 253.4375 149.027344 253.507812 149.1875 C 253.574219 149.347656 253.609375 149.511719 253.613281 149.6875 L 253.613281 176.269531 Z M 244.898438 176.269531 " fill-opacity="1" fill-rule="nonzero"/></g><path fill="#17a34a" d="M 118.371094 98.867188 L 171.8125 98.867188 C 172.265625 98.867188 172.703125 98.78125 173.121094 98.609375 C 173.539062 98.433594 173.90625 98.1875 174.226562 97.867188 C 174.546875 97.546875 174.796875 97.179688 174.96875 96.761719 C 175.140625 96.339844 175.226562 95.90625 175.226562 95.453125 C 175.226562 95 175.140625 94.566406 174.96875 94.144531 C 174.796875 93.726562 174.546875 93.359375 174.226562 93.039062 C 173.90625 92.71875 173.539062 92.472656 173.121094 92.296875 C 172.703125 92.125 172.265625 92.039062 171.8125 92.039062 L 118.371094 92.039062 C 117.917969 92.039062 117.484375 92.125 117.066406 92.296875 C 116.648438 92.472656 116.277344 92.71875 115.957031 93.039062 C 115.636719 93.359375 115.390625 93.726562 115.21875 94.144531 C 115.042969 94.566406 114.957031 95 114.957031 95.453125 C 114.957031 95.90625 115.042969 96.339844 115.21875 96.761719 C 115.390625 97.179688 115.636719 97.546875 115.957031 97.867188 C 116.277344 98.1875 116.648438 98.433594 117.066406 98.609375 C 117.484375 98.78125 117.917969 98.867188 118.371094 98.867188 Z M 118.371094 98.867188 " fill-opacity="1" fill-rule="nonzero"/><path fill="#17a34a" d="M 137.277344 159.902344 L 118.371094 159.902344 C 117.917969 159.902344 117.484375 159.992188 117.066406 160.164062 C 116.648438 160.335938 116.277344 160.582031 115.957031 160.902344 C 115.636719 161.222656 115.390625 161.59375 115.21875 162.011719 C 115.042969 162.429688 114.957031 162.867188 114.957031 163.320312 C 114.957031 163.773438 115.042969 164.207031 115.21875 164.625 C 115.390625 165.042969 115.636719 165.414062 115.957031 165.734375 C 116.277344 166.054688 116.648438 166.300781 117.066406 166.472656 C 117.484375 166.648438 117.917969 166.734375 118.371094 166.734375 L 137.277344 166.734375 C 137.730469 166.734375 138.167969 166.648438 138.585938 166.472656 C 139.003906 166.300781 139.375 166.054688 139.695312 165.734375 C 140.015625 165.414062 140.261719 165.042969 140.433594 164.625 C 140.609375 164.207031 140.695312 163.773438 140.695312 163.320312 C 140.695312 162.867188 140.609375 162.429688 140.433594 162.011719 C 140.261719 161.59375 140.015625 161.222656 139.695312 160.902344 C 139.375 160.582031 139.003906 160.335938 138.585938 160.164062 C 138.167969 159.992188 137.730469 159.902344 137.277344 159.902344 Z M 137.277344 159.902344 " fill-opacity="1" fill-rule="nonzero"/><path fill="#17a34a" d="M 179 159.902344 L 153.5625 159.902344 C 153.109375 159.902344 152.675781 159.992188 152.253906 160.164062 C 151.835938 160.335938 151.46875 160.582031 151.148438 160.902344 C 150.828125 161.222656 150.582031 161.59375 150.40625 162.011719 C 150.234375 162.429688 150.148438 162.867188 150.148438 163.320312 C 150.148438 163.773438 150.234375 164.207031 150.40625 164.625 C 150.582031 165.042969 150.828125 165.414062 151.148438 165.734375 C 151.46875 166.054688 151.835938 166.300781 152.253906 166.472656 C 152.675781 166.648438 153.109375 166.734375 153.5625 166.734375 L 179 166.734375 C 179.453125 166.734375 179.886719 166.648438 180.304688 166.472656 C 180.722656 166.300781 181.09375 166.054688 181.414062 165.734375 C 181.734375 165.414062 181.980469 165.042969 182.152344 164.625 C 182.328125 164.207031 182.414062 163.773438 182.414062 163.320312 C 182.414062 162.867188 182.328125 162.429688 182.152344 162.011719 C 181.980469 161.59375 181.734375 161.222656 181.414062 160.902344 C 181.09375 160.582031 180.722656 160.335938 180.304688 160.164062 C 179.886719 159.992188 179.453125 159.902344 179 159.902344 Z M 179 159.902344 " fill-opacity="1" fill-rule="nonzero"/><path fill="#17a34a" d="M 118.371094 114.222656 L 178.808594 114.222656 C 179.261719 114.222656 179.695312 114.136719 180.113281 113.960938 C 180.53125 113.789062 180.902344 113.542969 181.222656 113.222656 C 181.542969 112.902344 181.789062 112.53125 181.960938 112.113281 C 182.136719 111.695312 182.222656 111.261719 182.222656 110.808594 C 182.222656 110.355469 182.136719 109.917969 181.960938 109.5 C 181.789062 109.082031 181.542969 108.714844 181.222656 108.394531 C 180.902344 108.074219 180.53125 107.824219 180.113281 107.652344 C 179.695312 107.480469 179.261719 107.390625 178.808594 107.390625 L 118.371094 107.390625 C 117.917969 107.390625 117.484375 107.480469 117.066406 107.652344 C 116.648438 107.824219 116.277344 108.074219 115.957031 108.394531 C 115.636719 108.714844 115.390625 109.082031 115.21875 109.5 C 115.042969 109.917969 114.957031 110.355469 114.957031 110.808594 C 114.957031 111.261719 115.042969 111.695312 115.21875 112.113281 C 115.390625 112.53125 115.636719 112.902344 115.957031 113.222656 C 116.277344 113.542969 116.648438 113.789062 117.066406 113.960938 C 117.484375 114.136719 117.917969 114.222656 118.371094 114.222656 Z M 118.371094 114.222656 " fill-opacity="1" fill-rule="nonzero"/><path fill="#17a34a" d="M 201.183594 142.800781 L 118.371094 142.800781 C 117.917969 142.800781 117.484375 142.886719 117.066406 143.0625 C 116.648438 143.234375 116.277344 143.480469 115.957031 143.800781 C 115.636719 144.121094 115.390625 144.492188 115.21875 144.910156 C 115.042969 145.328125 114.957031 145.761719 114.957031 146.214844 C 114.957031 146.667969 115.042969 147.105469 115.21875 147.523438 C 115.390625 147.941406 115.636719 148.3125 115.957031 148.628906 C 116.277344 148.949219 116.648438 149.199219 117.066406 149.371094 C 117.484375 149.542969 117.917969 149.632812 118.371094 149.632812 L 201.183594 149.632812 C 201.636719 149.632812 202.070312 149.542969 202.492188 149.371094 C 202.910156 149.199219 203.277344 148.949219 203.597656 148.628906 C 203.917969 148.3125 204.164062 147.941406 204.339844 147.523438 C 204.511719 147.105469 204.597656 146.667969 204.597656 146.214844 C 204.597656 145.761719 204.511719 145.328125 204.339844 144.910156 C 204.164062 144.492188 203.917969 144.121094 203.597656 143.800781 C 203.277344 143.480469 202.910156 143.234375 202.492188 143.0625 C 202.070312 142.886719 201.636719 142.800781 201.183594 142.800781 Z M 201.183594 142.800781 " fill-opacity="1" fill-rule="nonzero"/><path fill="#17a34a" d="M 219.351562 125.289062 L 118.261719 125.289062 C 117.808594 125.289062 117.375 125.375 116.953125 125.546875 C 116.535156 125.71875 116.167969 125.964844 115.84375 126.285156 C 115.523438 126.605469 115.277344 126.976562 115.105469 127.394531 C 114.929688 127.8125 114.84375 128.25 114.84375 128.703125 C 114.84375 129.15625 114.929688 129.59375 115.105469 130.011719 C 115.277344 130.429688 115.523438 130.800781 115.84375 131.121094 C 116.167969 131.441406 116.535156 131.6875 116.953125 131.859375 C 117.375 132.03125 117.808594 132.117188 118.261719 132.117188 L 219.351562 132.117188 C 219.804688 132.117188 220.242188 132.03125 220.660156 131.859375 C 221.078125 131.683594 221.445312 131.4375 221.765625 131.117188 C 222.085938 130.796875 222.332031 130.429688 222.507812 130.011719 C 222.679688 129.589844 222.765625 129.15625 222.765625 128.703125 C 222.765625 128.25 222.679688 127.816406 222.507812 127.394531 C 222.332031 126.976562 222.085938 126.609375 221.765625 126.289062 C 221.445312 125.96875 221.078125 125.722656 220.660156 125.546875 C 220.242188 125.375 219.804688 125.289062 219.351562 125.289062 Z M 219.351562 125.289062 " fill-opacity="1" fill-rule="nonzero"/><g clip-path="url(#cf8a79d69e)"><g clip-path="url(#6c8cd69337)"><path stroke-linecap="butt" transform="matrix(0.748891, 0, 0, 0.748891, 0, 0.0000114852)" fill="none" stroke-linejoin="miter" d="M 224.869114 -0.0000153363 C 100.674973 -0.0000153363 0 100.674958 0 224.869099 C 0 349.058024 100.674973 449.732997 224.869114 449.732997 C 349.058039 449.732997 449.733013 349.058024 449.733013 224.869099 C 449.733013 100.674958 349.058039 -0.0000153363 224.869114 -0.0000153363 Z M 224.869114 -0.0000153363 " stroke="#17a34a" stroke-width="20" stroke-opacity="1" stroke-miterlimit="4"/></g></g></svg>