<svg xmlns="http://www.w3.org/2000/svg" xmlns:xlink="http://www.w3.org/1999/xlink" width="450" zoomAndPan="magnify" viewBox="0 0 337.5 337.500003" height="450" preserveAspectRatio="xMidYMid meet" version="1.0"><path fill="#17a34a" d="M 168.453125 0.0273438 C 214.976562 0.0273438 257.097656 18.882812 287.59375 49.371094 C 318.089844 79.859375 336.945312 121.980469 336.945312 168.511719 C 336.945312 215.035156 318.089844 257.152344 287.59375 287.648438 C 257.097656 318.144531 214.984375 336.992188 168.453125 336.992188 C 121.933594 336.992188 79.8125 318.136719 49.316406 287.648438 C 18.820312 257.160156 -0.0273438 215.035156 -0.0273438 168.511719 C -0.0273438 121.988281 18.828125 79.867188 49.316406 49.371094 C 79.804688 18.878906 121.933594 0.0273438 168.453125 0.0273438 Z M 280.972656 55.992188 C 252.175781 27.195312 212.402344 9.386719 168.453125 9.386719 C 124.515625 9.386719 84.734375 27.195312 55.9375 55.992188 C 27.140625 84.789062 9.328125 124.566406 9.328125 168.511719 C 9.328125 212.449219 27.140625 252.234375 55.9375 281.03125 C 84.734375 309.824219 124.507812 327.636719 168.453125 327.636719 C 212.394531 327.636719 252.175781 309.824219 280.972656 281.03125 C 309.769531 252.234375 327.578125 212.457031 327.578125 168.511719 C 327.578125 124.570312 309.769531 84.789062 280.972656 55.992188 Z M 280.972656 55.992188 " fill-opacity="1" fill-rule="nonzero"/><path fill="#17a34a" d="M 148.617188 159.558594 C 147.808594 157.953125 145.84375 157.308594 144.242188 158.121094 C 142.632812 158.929688 141.988281 160.894531 142.804688 162.496094 C 143.6875 164.257812 143.617188 168.257812 142.460938 172.589844 C 141.484375 176.234375 139.726562 179.917969 137.101562 182.4375 C 135.804688 183.6875 135.769531 185.746094 137.011719 187.042969 C 138.261719 188.34375 140.316406 188.378906 141.617188 187.136719 C 145.191406 183.695312 147.515625 178.921875 148.757812 174.273438 C 150.300781 168.476562 150.152344 162.601562 148.617188 159.558594 Z M 194.386719 186.890625 C 195.714844 188.109375 197.777344 188.019531 198.992188 186.699219 C 200.214844 185.375 200.121094 183.316406 198.800781 182.09375 C 196.359375 179.855469 194.886719 176.191406 194.140625 172.421875 C 193.128906 167.324219 193.425781 162.332031 194.441406 160.296875 C 195.242188 158.683594 194.589844 156.722656 192.976562 155.925781 C 191.363281 155.125 189.402344 155.777344 188.601562 157.390625 C 187.066406 160.480469 186.460938 167.242188 187.738281 173.675781 C 188.714844 178.632812 190.800781 183.597656 194.386719 186.890625 Z M 194.386719 186.890625 " fill-opacity="1" fill-rule="nonzero"/><path fill="#17a34a" d="M 209.4375 126.796875 C 209.320312 138.625 204.769531 149.730469 197.308594 157.621094 C 189.421875 165.957031 178.78125 171.164062 168.320312 171.164062 C 158.710938 171.164062 150.769531 168.441406 144.425781 163.765625 C 137.46875 158.632812 132.519531 151.214844 129.4375 142.488281 C 90.609375 49.210938 190.953125 53.492188 196.964844 78.78125 C 219.054688 76.363281 217.574219 106.503906 209.4375 126.796875 Z M 132.695312 136.730469 L 132.804688 136.535156 C 136.800781 149.695312 142.03125 154.078125 147.898438 158.402344 C 153.234375 162.339844 160.015625 164.628906 168.320312 164.628906 C 177.167969 164.628906 186.230469 160.15625 192.996094 153.003906 C 199.378906 146.257812 203.683594 137.160156 203.808594 127.210938 C 197.273438 123.484375 191.648438 107.546875 192.75 97.214844 C 143.6875 105.941406 158.042969 91.429688 132.695312 136.730469 Z M 132.695312 136.730469 " fill-opacity="1" fill-rule="nonzero"/><path fill="#17a34a" d="M 130.867188 182.453125 L 141.554688 182.453125 L 165.300781 209.269531 L 156.710938 214.414062 C 156.683594 214.429688 156.648438 214.449219 156.617188 214.472656 L 149.472656 218.753906 Z M 130.867188 182.453125 " fill-opacity="1" fill-rule="nonzero"/><path fill="#17a34a" d="M 151.789062 273.8125 L 84.816406 273.8125 L 84.816406 221.800781 C 84.816406 210.984375 89.246094 201.148438 96.371094 194.015625 C 103.503906 186.882812 113.339844 182.460938 124.15625 182.460938 L 126.613281 182.460938 L 147.023438 222.285156 L 147.015625 222.292969 C 147.492188 223.226562 148.636719 223.597656 149.570312 223.113281 C 149.65625 223.070312 149.730469 223.023438 149.808594 222.964844 L 157.179688 218.550781 L 160.578125 222.839844 Z M 151.789062 273.8125 " fill-opacity="1" fill-rule="nonzero"/><path fill="#17a34a" d="M 179.890625 273.8125 L 155.636719 273.8125 L 163.738281 226.890625 L 166.488281 230.535156 C 166.601562 230.710938 166.75 230.863281 166.925781 230.996094 C 167.757812 231.628906 168.953125 231.460938 169.585938 230.625 L 172.097656 227.296875 Z M 179.890625 273.8125 " fill-opacity="1" fill-rule="nonzero"/><path fill="#17a34a" d="M 209.851562 182.453125 L 212.757812 182.453125 C 223.578125 182.453125 233.410156 186.882812 240.539062 194.015625 C 247.667969 201.148438 252.097656 210.984375 252.097656 221.800781 L 252.097656 273.8125 L 183.738281 273.8125 L 175.214844 222.953125 L 178.578125 218.128906 L 186.652344 222.964844 C 186.726562 223.023438 186.804688 223.0625 186.890625 223.113281 C 187.824219 223.589844 188.96875 223.226562 189.445312 222.292969 L 189.4375 222.285156 Z M 209.851562 182.453125 " fill-opacity="1" fill-rule="nonzero"/><path fill="#17a34a" d="M 194.890625 182.453125 L 205.597656 182.453125 L 186.996094 218.753906 L 179.125 214.042969 L 179.117188 214.035156 C 179.042969 213.988281 178.964844 213.9375 178.886719 213.894531 L 171.164062 209.269531 Z M 194.890625 182.453125 " fill-opacity="1" fill-rule="nonzero"/><path fill="#17a34a" d="M 168.070312 226.328125 C 165.582031 223.035156 163.019531 219.820312 160.464844 216.585938 L 168.238281 211.929688 L 175.320312 216.171875 C 172.925781 219.597656 170.582031 222.992188 168.070312 226.328125 Z M 168.070312 226.328125 " fill-opacity="1" fill-rule="nonzero"/></svg>