<svg xmlns="http://www.w3.org/2000/svg" xmlns:xlink="http://www.w3.org/1999/xlink" width="450" zoomAndPan="magnify" viewBox="0 0 337.5 337.500003" height="450" preserveAspectRatio="xMidYMid meet" version="1.0"><defs><clipPath id="ad6ea88598"><path d="M 0 0 L 336.800781 0 L 336.800781 336.800781 L 0 336.800781 Z M 0 0 " clip-rule="nonzero"/></clipPath><clipPath id="96804719b6"><path d="M 168.402344 0 C 75.394531 0 0 75.394531 0 168.402344 C 0 261.40625 75.394531 336.800781 168.402344 336.800781 C 261.40625 336.800781 336.800781 261.40625 336.800781 168.402344 C 336.800781 75.394531 261.40625 0 168.402344 0 Z M 168.402344 0 " clip-rule="nonzero"/></clipPath><clipPath id="310dd5db04"><path d="M 47.382812 73.703125 L 289.273438 73.703125 L 289.273438 263.171875 L 47.382812 263.171875 Z M 47.382812 73.703125 " clip-rule="nonzero"/></clipPath></defs><g clip-path="url(#ad6ea88598)"><g clip-path="url(#96804719b6)"><path stroke-linecap="butt" transform="matrix(0.748891, 0, 0, 0.748891, 0, 0.0000114852)" fill="none" stroke-linejoin="miter" d="M 224.869114 -0.0000153363 C 100.674973 -0.0000153363 0 100.674958 0 224.869099 C 0 349.058024 100.674973 449.732997 224.869114 449.732997 C 349.058039 449.732997 449.733013 349.058024 449.733013 224.869099 C 449.733013 100.674958 349.058039 -0.0000153363 224.869114 -0.0000153363 Z M 224.869114 -0.0000153363 " stroke="#17a34a" stroke-width="20" stroke-opacity="1" stroke-miterlimit="4"/></g></g><g clip-path="url(#310dd5db04)"><path fill="#17a34a" d="M 121.546875 124.699219 C 124.871094 101.808594 144.585938 84.226562 168.398438 84.226562 C 192.210938 84.226562 211.925781 101.808594 215.25 124.699219 C 215.480469 126.269531 216.402344 127.652344 217.765625 128.460938 C 219.125 129.273438 220.78125 129.429688 222.273438 128.882812 C 226.789062 127.21875 231.675781 126.3125 236.789062 126.3125 C 260.03125 126.3125 278.875 145.15625 278.875 168.398438 C 278.875 191.640625 260.03125 210.484375 236.789062 210.484375 L 199.960938 210.484375 C 197.058594 210.484375 194.703125 212.839844 194.703125 215.746094 C 194.703125 218.648438 197.058594 221.003906 199.960938 221.003906 L 236.789062 221.003906 C 265.84375 221.003906 289.394531 197.453125 289.394531 168.398438 C 289.394531 139.34375 265.84375 115.789062 236.789062 115.789062 C 232.554688 115.789062 228.429688 116.292969 224.476562 117.238281 C 218.097656 92.210938 195.414062 73.703125 168.398438 73.703125 C 141.382812 73.703125 118.699219 92.210938 112.320312 117.238281 C 108.367188 116.292969 104.242188 115.789062 100.007812 115.789062 C 70.953125 115.789062 47.402344 139.34375 47.402344 168.398438 C 47.402344 197.453125 70.953125 221.003906 100.007812 221.003906 L 136.832031 221.003906 C 139.738281 221.003906 142.09375 218.648438 142.09375 215.746094 C 142.09375 212.839844 139.738281 210.484375 136.832031 210.484375 L 100.007812 210.484375 C 76.765625 210.484375 57.921875 191.640625 57.921875 168.398438 C 57.921875 145.15625 76.765625 126.3125 100.007812 126.3125 C 105.121094 126.3125 110.007812 127.21875 114.523438 128.882812 C 116.011719 129.429688 117.667969 129.273438 119.03125 128.460938 C 120.394531 127.652344 121.316406 126.269531 121.546875 124.699219 Z M 203.683594 169.9375 L 172.117188 138.375 C 170.0625 136.320312 166.734375 136.320312 164.679688 138.375 L 133.113281 169.9375 C 131.058594 171.992188 131.058594 175.324219 133.113281 177.378906 C 135.167969 179.433594 138.5 179.433594 140.554688 177.378906 L 163.136719 154.792969 L 163.136719 257.832031 C 163.136719 260.734375 165.492188 263.089844 168.398438 263.089844 C 171.304688 263.089844 173.660156 260.734375 173.660156 257.832031 L 173.660156 154.792969 L 196.242188 177.378906 C 198.296875 179.433594 201.628906 179.433594 203.683594 177.378906 C 205.738281 175.324219 205.738281 171.992188 203.683594 169.9375 Z M 203.683594 169.9375 " fill-opacity="1" fill-rule="evenodd"/></g></svg>