<svg xmlns="http://www.w3.org/2000/svg" xmlns:xlink="http://www.w3.org/1999/xlink" width="450" zoomAndPan="magnify" viewBox="0 0 337.5 337.500003" height="450" preserveAspectRatio="xMidYMid meet" version="1.0"><defs><clipPath id="33761d6981"><path d="M 0 0 L 336.800781 0 L 336.800781 336.800781 L 0 336.800781 Z M 0 0 " clip-rule="nonzero"/></clipPath><clipPath id="bf5000372e"><path d="M 168.402344 0 C 75.394531 0 0 75.394531 0 168.402344 C 0 261.40625 75.394531 336.800781 168.402344 336.800781 C 261.40625 336.800781 336.800781 261.40625 336.800781 168.402344 C 336.800781 75.394531 261.40625 0 168.402344 0 Z M 168.402344 0 " clip-rule="nonzero"/></clipPath><clipPath id="9a38d0ccac"><path d="M 80.710938 68 L 227 68 L 227 269.125 L 80.710938 269.125 Z M 80.710938 68 " clip-rule="nonzero"/></clipPath></defs><g clip-path="url(#33761d6981)"><g clip-path="url(#bf5000372e)"><path stroke-linecap="butt" transform="matrix(0.748891, 0, 0, 0.748891, 0, 0.0000114852)" fill="none" stroke-linejoin="miter" d="M 224.869114 -0.0000153363 C 100.674973 -0.0000153363 0 100.674958 0 224.869099 C 0 349.058024 100.674973 449.732997 224.869114 449.732997 C 349.058039 449.732997 449.733013 349.058024 449.733013 224.869099 C 449.733013 100.674958 349.058039 -0.0000153363 224.869114 -0.0000153363 Z M 224.869114 -0.0000153363 " stroke="#17a34a" stroke-width="20" stroke-opacity="1" stroke-miterlimit="4"/></g></g><g clip-path="url(#9a38d0ccac)"><path fill="#17a34a" d="M 210.523438 269.140625 L 97.082031 269.140625 C 88.003906 269.140625 80.613281 261.753906 80.613281 252.675781 L 80.613281 84.578125 C 80.613281 75.492188 88.003906 68.105469 97.082031 68.105469 L 191.347656 68.105469 C 193.140625 68.105469 194.59375 69.558594 194.59375 71.355469 C 194.59375 73.148438 193.140625 74.601562 191.347656 74.601562 L 97.082031 74.601562 C 91.585938 74.601562 87.113281 79.074219 87.113281 84.578125 L 87.113281 252.671875 C 87.113281 258.167969 91.585938 262.640625 97.082031 262.640625 L 210.519531 262.640625 C 216.015625 262.640625 220.492188 258.167969 220.492188 252.671875 L 220.492188 179.929688 C 220.492188 178.136719 221.945312 176.683594 223.738281 176.683594 C 225.53125 176.683594 226.988281 178.136719 226.988281 179.929688 L 226.988281 252.671875 C 226.992188 261.753906 219.605469 269.140625 210.523438 269.140625 Z M 223.742188 137.984375 C 221.949219 137.984375 220.492188 136.527344 220.492188 134.734375 L 220.492188 104.953125 C 220.492188 103.160156 221.949219 101.703125 223.742188 101.703125 C 225.535156 101.703125 226.992188 103.160156 226.992188 104.953125 L 226.992188 134.734375 C 226.992188 136.527344 225.535156 137.984375 223.742188 137.984375 Z M 223.742188 137.984375 " fill-opacity="1" fill-rule="nonzero"/></g><path fill="#17a34a" d="M 223.742188 108.203125 L 204.566406 108.203125 C 195.484375 108.203125 188.097656 100.8125 188.097656 91.730469 L 188.097656 71.355469 C 188.097656 70.027344 188.902344 68.835938 190.128906 68.34375 C 191.355469 67.847656 192.769531 68.148438 193.683594 69.097656 L 226.082031 102.699219 C 226.988281 103.636719 227.242188 105.023438 226.734375 106.222656 C 226.226562 107.421875 225.046875 108.203125 223.742188 108.203125 Z M 194.59375 79.402344 L 194.59375 91.726562 C 194.59375 97.226562 199.066406 101.699219 204.566406 101.699219 L 216.09375 101.699219 Z M 194.59375 79.402344 " fill-opacity="1" fill-rule="nonzero"/><path fill="#17a34a" d="M 177.5625 234.667969 C 176.96875 234.667969 176.375 234.507812 175.847656 234.179688 C 174.730469 233.484375 174.144531 232.183594 174.359375 230.886719 L 179.5 199.957031 C 179.570312 199.539062 179.722656 199.132812 179.949219 198.769531 L 245.355469 93.976562 C 247.792969 90.070312 253.066406 88.574219 256.648438 90.800781 L 269.035156 98.53125 C 272.738281 100.859375 273.683594 106.042969 271.160156 110.09375 L 205.757812 214.875 C 205.53125 215.234375 205.242188 215.546875 204.894531 215.792969 L 179.457031 234.0625 C 178.894531 234.464844 178.230469 234.667969 177.5625 234.667969 Z M 185.800781 201.660156 L 182.058594 224.195312 L 200.585938 210.886719 L 265.648438 106.65625 C 266.308594 105.597656 266.160156 104.398438 265.582031 104.035156 L 253.210938 96.316406 C 252.703125 96 251.574219 96.289062 250.867188 97.414062 Z M 185.800781 201.660156 " fill-opacity="1" fill-rule="nonzero"/><path fill="#17a34a" d="M 246.855469 174.96875 C 246.265625 174.96875 245.671875 174.808594 245.140625 174.472656 C 243.617188 173.523438 243.152344 171.519531 244.101562 170 L 270.800781 127.222656 L 260.609375 120.875 C 259.085938 119.925781 258.621094 117.921875 259.570312 116.402344 C 260.519531 114.878906 262.523438 114.414062 264.042969 115.363281 L 276.996094 123.429688 C 277.726562 123.882812 278.246094 124.609375 278.441406 125.453125 C 278.636719 126.292969 278.492188 127.175781 278.03125 127.90625 L 249.609375 173.4375 C 249 174.425781 247.9375 174.96875 246.855469 174.96875 Z M 246.855469 174.96875 " fill-opacity="1" fill-rule="nonzero"/><path fill="#17a34a" d="M 267.316406 104.535156 C 266.726562 104.535156 266.132812 104.378906 265.601562 104.046875 L 253.214844 96.320312 C 252.484375 95.863281 251.964844 95.136719 251.769531 94.292969 C 251.574219 93.457031 251.722656 92.570312 252.179688 91.839844 L 259 80.933594 C 259.945312 79.417969 261.953125 78.949219 263.472656 79.902344 L 275.847656 87.625 C 276.582031 88.082031 277.101562 88.808594 277.296875 89.652344 C 277.488281 90.492188 277.34375 91.371094 276.886719 92.105469 L 270.078125 103.011719 C 269.460938 103.996094 268.398438 104.535156 267.316406 104.535156 Z M 259.410156 92.523438 L 266.28125 96.8125 L 269.652344 91.410156 L 262.785156 87.125 Z M 259.410156 92.523438 " fill-opacity="1" fill-rule="nonzero"/><path fill="#17a34a" d="M 177.5625 234.667969 L 111.382812 234.667969 C 109.589844 234.667969 108.136719 233.214844 108.136719 231.421875 C 108.136719 229.628906 109.589844 228.171875 111.382812 228.171875 L 177.5625 228.171875 C 179.359375 228.171875 180.8125 229.628906 180.8125 231.421875 C 180.8125 233.214844 179.359375 234.667969 177.5625 234.667969 Z M 177.5625 234.667969 " fill-opacity="1" fill-rule="nonzero"/><path fill="#17a34a" d="M 153.1875 122.28125 L 111.382812 122.28125 C 109.589844 122.28125 108.136719 120.824219 108.136719 119.03125 C 108.136719 117.238281 109.589844 115.785156 111.382812 115.785156 L 153.1875 115.785156 C 154.980469 115.785156 156.433594 117.238281 156.433594 119.03125 C 156.433594 120.824219 154.980469 122.28125 153.1875 122.28125 Z M 153.1875 122.28125 " fill-opacity="1" fill-rule="nonzero"/><path fill="#17a34a" d="M 187.941406 150.378906 L 111.382812 150.378906 C 109.589844 150.378906 108.136719 148.925781 108.136719 147.132812 C 108.136719 145.339844 109.589844 143.882812 111.382812 143.882812 L 187.941406 143.882812 C 189.734375 143.882812 191.191406 145.339844 191.191406 147.132812 C 191.191406 148.925781 189.738281 150.378906 187.941406 150.378906 Z M 187.941406 150.378906 " fill-opacity="1" fill-rule="nonzero"/><path fill="#17a34a" d="M 177.5625 178.480469 L 111.382812 178.480469 C 109.589844 178.480469 108.136719 177.027344 108.136719 175.234375 C 108.136719 173.441406 109.589844 171.984375 111.382812 171.984375 L 177.5625 171.984375 C 179.359375 171.984375 180.8125 173.441406 180.8125 175.234375 C 180.8125 177.027344 179.359375 178.480469 177.5625 178.480469 Z M 177.5625 178.480469 " fill-opacity="1" fill-rule="nonzero"/><path fill="#17a34a" d="M 140.890625 206.566406 L 111.382812 206.566406 C 109.589844 206.566406 108.136719 205.113281 108.136719 203.320312 C 108.136719 201.527344 109.589844 200.070312 111.382812 200.070312 L 140.890625 200.070312 C 142.6875 200.070312 144.140625 201.527344 144.140625 203.320312 C 144.140625 205.113281 142.6875 206.566406 140.890625 206.566406 Z M 140.890625 206.566406 " fill-opacity="1" fill-rule="nonzero"/><path fill="#17a34a" d="M 192.503906 122.28125 L 172.835938 122.28125 C 171.039062 122.28125 169.585938 120.824219 169.585938 119.03125 C 169.585938 117.238281 171.039062 115.785156 172.835938 115.785156 L 192.503906 115.785156 C 194.300781 115.785156 195.753906 117.238281 195.753906 119.03125 C 195.753906 120.824219 194.300781 122.28125 192.503906 122.28125 Z M 192.503906 122.28125 " fill-opacity="1" fill-rule="nonzero"/><path fill="#17a34a" d="M 182.238281 206.566406 L 156.34375 206.566406 C 154.550781 206.566406 153.09375 205.113281 153.09375 203.320312 C 153.09375 201.527344 154.550781 200.070312 156.34375 200.070312 L 182.238281 200.070312 C 184.03125 200.070312 185.488281 201.527344 185.488281 203.320312 C 185.488281 205.113281 184.03125 206.566406 182.238281 206.566406 Z M 182.238281 206.566406 " fill-opacity="1" fill-rule="nonzero"/></svg>